<svg xmlns="http://www.w3.org/2000/svg" xmlns:xlink="http://www.w3.org/1999/xlink" viewBox="0 0 664.8 292" width="664.8" height="292"><path d="M 104.400,225.400 C 107.745,223.937 107.200,223.400 110.000,221.400" stroke-width="4.651" stroke="black" fill="none" stroke-linecap="round"></path><path d="M 110.000,221.400 C 113.573,216.181 114.145,216.737 117.200,211.000" stroke-width="3.552" stroke="black" fill="none" stroke-linecap="round"></path><path d="M 117.200,211.000 C 119.264,208.244 119.173,208.181 121.200,205.400" stroke-width="3.810" stroke="black" fill="none" stroke-linecap="round"></path><path d="M 121.200,205.400 C 131.813,189.270 132.064,189.444 142.800,173.400" stroke-width="2.193" stroke="black" fill="none" stroke-linecap="round"></path><path d="M 142.800,173.400 C 149.906,163.332 149.813,163.270 157.200,153.400" stroke-width="2.412" stroke="black" fill="none" stroke-linecap="round"></path><path d="M 157.200,153.400 C 167.082,136.142 168.706,137.732 180.400,122.200" stroke-width="1.875" stroke="black" fill="none" stroke-linecap="round"></path><path d="M 180.400,122.200 C 194.018,110.484 192.682,109.342 208.400,99.800" stroke-width="1.828" stroke="black" fill="none" stroke-linecap="round"></path><path d="M 208.400,99.800 C 222.462,90.289 222.018,89.684 236.400,80.600" stroke-width="2.153" stroke="black" fill="none" stroke-linecap="round"></path><path d="M 236.400,80.600 C 254.676,66.522 255.262,67.489 274.000,54.200" stroke-width="1.771" stroke="black" fill="none" stroke-linecap="round"></path><path d="M 274.000,54.200 C 282.800,49.800 282.276,48.922 291.600,45.400" stroke-width="2.468" stroke="black" fill="none" stroke-linecap="round"></path><path d="M 291.600,45.400 C 298.431,39.543 298.000,42.200 304.400,39.000" stroke-width="2.799" stroke="black" fill="none" stroke-linecap="round"></path><path d="M 304.400,39.000 C 307.212,41.089 307.231,38.743 309.200,43.800" stroke-width="4.024" stroke="black" fill="none" stroke-linecap="round"></path><path d="M 309.200,43.800 C 311.585,47.231 311.612,47.089 313.200,51.000" stroke-width="3.801" stroke="black" fill="none" stroke-linecap="round"></path><path d="M 313.200,51.000 C 315.668,55.659 315.185,55.631 316.400,60.600" stroke-width="3.545" stroke="black" fill="none" stroke-linecap="round"></path><path d="M 316.400,60.600 C 316.400,66.600 317.268,66.459 316.400,72.600" stroke-width="3.368" stroke="black" fill="none" stroke-linecap="round"></path><path d="M 316.400,72.600 C 316.400,83.000 316.400,83.000 316.400,93.400" stroke-width="2.734" stroke="black" fill="none" stroke-linecap="round"></path><path d="M 316.400,93.400 C 316.938,104.241 316.400,104.200 316.400,115.000" stroke-width="2.486" stroke="black" fill="none" stroke-linecap="round"></path><path d="M 316.400,115.000 C 316.259,120.397 316.138,120.241 314.800,125.400" stroke-width="3.104" stroke="black" fill="none" stroke-linecap="round"></path><path d="M 314.800,125.400 C 313.404,130.193 313.459,129.997 310.800,134.200" stroke-width="3.375" stroke="black" fill="none" stroke-linecap="round"></path><path d="M 310.800,134.200 C 307.554,137.761 308.204,138.193 304.400,141.400" stroke-width="3.523" stroke="black" fill="none" stroke-linecap="round"></path><path d="M 304.400,141.400 C 300.153,147.436 302.354,143.761 300.400,146.200" stroke-width="3.873" stroke="black" fill="none" stroke-linecap="round"></path><path d="M 300.400,146.200 C 302.666,139.513 300.953,143.436 306.000,133.400" stroke-width="4.564" stroke="black" fill="none" stroke-linecap="round"></path><path d="M 306.000,133.400 C 310.051,126.351 309.866,126.313 314.800,119.800" stroke-width="3.163" stroke="black" fill="none" stroke-linecap="round"></path><path d="M 314.800,119.800 C 321.761,110.389 321.651,110.351 329.200,101.400" stroke-width="2.562" stroke="black" fill="none" stroke-linecap="round"></path><path d="M 329.200,101.400 C 332.386,95.883 331.361,98.789 334.000,96.600" stroke-width="3.434" stroke="black" fill="none" stroke-linecap="round"></path><path d="M 334.000,96.600 C 336.044,100.509 335.986,97.483 336.400,104.600" stroke-width="4.500" stroke="black" fill="none" stroke-linecap="round"></path><path d="M 336.400,104.600 C 335.800,109.792 336.844,109.709 335.600,115.000" stroke-width="3.673" stroke="black" fill="none" stroke-linecap="round"></path><path d="M 335.600,115.000 C 336.138,120.287 335.400,120.192 335.600,125.400" stroke-width="3.543" stroke="black" fill="none" stroke-linecap="round"></path><path d="M 335.600,125.400 C 333.488,131.326 335.338,127.887 334.000,130.200" stroke-width="4.570" stroke="black" fill="none" stroke-linecap="round"></path><path d="M 334.000,130.200 C 336.052,122.936 335.488,126.926 339.600,116.600" stroke-width="4.151" stroke="black" fill="none" stroke-linecap="round"></path><path d="M 339.600,116.600 C 342.623,113.570 341.652,112.936 345.200,110.200" stroke-width="3.804" stroke="black" fill="none" stroke-linecap="round"></path><path d="M 345.200,110.200 C 348.079,102.616 347.823,106.770 350.000,103.000" stroke-width="3.998" stroke="black" fill="none" stroke-linecap="round"></path><path d="M 350.000,103.000 C 351.533,107.425 352.079,103.416 353.200,111.800" stroke-width="4.605" stroke="black" fill="none" stroke-linecap="round"></path><path d="M 353.200,111.800 C 355.039,120.480 354.733,115.825 356.400,119.800" stroke-width="4.234" stroke="black" fill="none" stroke-linecap="round"></path><path d="M 356.400,119.800 C 356.862,111.612 358.239,118.880 359.600,108.600" stroke-width="4.779" stroke="black" fill="none" stroke-linecap="round"></path><path d="M 359.600,108.600 C 362.472,109.247 360.862,107.212 364.400,111.000" stroke-width="4.992" stroke="black" fill="none" stroke-linecap="round"></path><path d="M 364.400,111.000 C 366.786,113.603 366.872,113.247 368.400,116.600" stroke-width="4.201" stroke="black" fill="none" stroke-linecap="round"></path><path d="M 368.400,116.600 C 368.400,120.600 369.586,118.803 370.000,121.400" stroke-width="4.251" stroke="black" fill="none" stroke-linecap="round"></path><path d="M 370.000,121.400 C 372.383,119.800 371.600,122.200 374.800,119.800" stroke-width="5.021" stroke="black" fill="none" stroke-linecap="round"></path><path d="M 374.800,119.800 C 378.071,122.419 377.583,119.800 380.400,121.400" stroke-width="4.835" stroke="black" fill="none" stroke-linecap="round"></path><path d="M 380.400,121.400 C 384.000,117.800 384.471,119.619 387.600,114.200" stroke-width="4.423" stroke="black" fill="none" stroke-linecap="round"></path><path d="M 387.600,114.200 C 391.319,111.374 390.800,111.000 394.000,107.800" stroke-width="3.868" stroke="black" fill="none" stroke-linecap="round"></path></svg>